<svg width="52" height="26" viewBox="0 0 52 26" fill="none" xmlns="http://www.w3.org/2000/svg">
<rect width="52" height="26" rx="13" fill="white"/>
<path d="M39 23C44.5228 23 49 18.5228 49 13C49 7.47715 44.5228 3 39 3C33.4772 3 29 7.47715 29 13C29 18.5228 33.4772 23 39 23Z" fill="#C2BFAE"/>
<path d="M39 9C37.344 9 36 10.3458 36 12.004C36 13.6302 37.272 14.9519 38.96 15C38.984 15 39.016 15 39.032 15C39.048 15 39.072 15 39.088 15C39.096 15 39.104 15 39.104 15C40.72 14.9439 41.992 13.6302 42 12.004C42 10.3458 40.656 9 39 9Z" fill="white"/>
<path d="M45 19.5137C43.4248 21.0524 41.3186 22 39 22C36.6814 22 34.5752 21.0524 33 19.5137C33.2124 18.6599 33.7876 17.8812 34.6283 17.2807C37.0442 15.5731 40.9735 15.5731 43.3717 17.2807C44.2212 17.8812 44.7876 18.6599 45 19.5137Z" fill="white"/>
<path d="M11 9H21" stroke="#33363F" stroke-width="1.36364" stroke-linecap="round"/>
<path d="M11 13.5454H21" stroke="#33363F" stroke-width="1.36364" stroke-linecap="round"/>
<path d="M11 18.0908H21" stroke="#33363F" stroke-width="1.36364" stroke-linecap="round"/>
</svg>
