<svg width="19" height="15" viewBox="0 0 19 15" fill="none" xmlns="http://www.w3.org/2000/svg">
<path d="M0.223928 8.07933L6.90057 14.756C7.22594 15.0813 7.75469 15.0813 8.07842 14.756C8.4038 14.4306 8.4038 13.9018 8.07842 13.5781L2.8349 8.33459L17.4834 8.33296C17.9422 8.33296 18.3164 7.95878 18.3164 7.5C18.3164 7.04122 17.9422 6.66703 17.4834 6.66703H2.8349L8.07842 1.42351C8.4038 1.09813 8.4038 0.569388 8.07842 0.245656C7.91574 0.0829697 7.70424 0 7.4911 0C7.27798 0 7.06649 0.0829697 6.90377 0.245656L0.227137 6.92229C0.1523 6.99713 0.0986118 7.08498 0.0611916 7.18097C0.0188942 7.28021 -0.000629425 7.38921 -0.000629425 7.50146C-0.000629425 7.61372 0.0205193 7.72272 0.0611916 7.82196C0.0986099 7.91307 0.157181 8.00092 0.227137 8.08063L0.223928 8.07933Z" fill="black"/>
</svg>
